<?xml version="1.0" encoding="UTF-8"?>
<svg id="a" data-name="Layer 1" xmlns="http://www.w3.org/2000/svg" viewBox="0 0 106.38 21.69">
  <defs>
    <style>
      .b {
        fill: #29a6ef;
      }
    </style>
  </defs>
  <path class="b" d="M103.4,14.58c-3.11,0-4.78-1.08-6.12-1.95-1.17-.75-2.01-1.3-3.92-1.3s-2.76.54-3.92,1.3c-1.34.87-3.01,1.95-6.12,1.95s-4.78-1.08-6.12-1.95c-1.17-.75-2.01-1.3-3.92-1.3s-2.76.54-3.92,1.3c-1.34.87-3.01,1.95-6.12,1.95s-4.78-1.08-6.12-1.95c-1.17-.75-2.01-1.3-3.92-1.3s-2.76.54-3.92,1.3c-1.34.87-3.01,1.95-6.12,1.95s-4.78-1.08-6.12-1.95c-1.17-.75-2.01-1.3-3.92-1.3s-2.76.54-3.93,1.3c-1.34.87-3.01,1.95-6.12,1.95s-4.78-1.08-6.12-1.95c-1.17-.75-2.01-1.3-3.93-1.3s-2.76.54-3.93,1.3c-1.34.87-3.01,1.95-6.12,1.95v-4.05c1.92,0,2.76-.54,3.93-1.3,1.34-.87,3.01-1.95,6.12-1.95s4.78,1.08,6.12,1.95c1.17.75,2.01,1.3,3.93,1.3s2.76-.54,3.93-1.3c1.34-.87,3.01-1.95,6.12-1.95s4.78,1.08,6.12,1.95c1.17.75,2.01,1.3,3.92,1.3s2.76-.54,3.92-1.3c1.34-.87,3.01-1.95,6.12-1.95s4.78,1.08,6.12,1.95c1.17.75,2.01,1.3,3.92,1.3s2.76-.54,3.92-1.3c1.34-.87,3.01-1.95,6.12-1.95s4.78,1.08,6.12,1.95c1.17.75,2.01,1.3,3.92,1.3s2.76-.54,3.92-1.3c1.34-.87,3.01-1.95,6.12-1.95s4.78,1.08,6.12,1.95c1.17.75,2.01,1.3,3.92,1.3v4.05Z"/>
</svg>