<svg width="255" height="78" viewBox="0 0 255 78" fill="none" xmlns="http://www.w3.org/2000/svg">
<path d="M234.789 6.7574C235.954 8.8558 236.344 12.3522 236.42 22.6055L240.461 27.5L240.538 24.0805C240.848 11.2619 240.304 6.60088 238.829 3.95865C238.442 3.33788 237.665 2.71446 236.033 1.93983L232.07 4.659C233.778 5.51322 234.402 6.13398 234.789 6.7574Z" fill="#E81900"/>
<path d="M108.774 6.7574C109.938 8.93273 110.405 12.4292 110.405 20.1198H114.445C114.522 10.4077 114.135 6.36743 112.814 3.95865C112.427 3.33788 111.883 2.71446 110.251 1.93983L106.211 4.73593C107.842 5.51322 108.386 6.13398 108.774 6.75475V6.7574Z" fill="#E81900"/>
<path d="M35.1996 32.7075L35.6267 32.3971C35.4914 32.4953 35.3535 32.5908 35.1996 32.7075Z" fill="#E81900"/>
<path d="M35.6267 32.3971C35.762 32.299 35.8999 32.2035 36.0538 32.0868L35.6267 32.3971Z" fill="#E81900"/>
<path d="M64.2562 41.0215C74.1221 40.1673 73.9683 5.5928 63.7124 5.5928C60.6828 5.5928 59.8286 6.99085 58.6613 8.77887C58.7383 8.70193 59.5925 8.70193 59.6721 8.70193C68.2169 8.70193 69.6945 32.6306 64.2562 41.0215Z" fill="#E81900"/>
<path d="M209.539 6.7574C211.014 9.39963 211.327 14.0607 211.171 26.1019C211.248 35.7344 211.014 40.7085 210.24 43.6611L211.638 44.5153C212.959 43.9715 213.269 43.2711 213.579 42.7273C215.054 40.0851 215.521 35.424 215.367 23.3032C215.524 11.2619 215.524 6.21091 214.046 3.56868C213.659 2.94792 212.648 2.71446 211.017 1.93718L206.977 4.73328C208.608 5.51056 209.152 6.13133 209.539 6.75209V6.7574Z" fill="#E81900"/>
<path d="M151.89 17.3237C151.89 19.2656 151.503 20.7432 150.803 21.9847C154.066 20.974 155.774 18.4113 155.774 14.5276C155.774 8.77887 151.657 7.30123 147.617 7.30123H142.489V9.86388C150.803 9.86388 151.89 13.0499 151.89 17.321V17.3237Z" fill="#E81900"/>
<path d="M193.972 27.4231L188.608 9.60125L186.791 15.533L190.37 27.4231H193.972Z" fill="#E81900"/>
<path d="M8.6287 15.9256L7.46145 1.8629L3.42117 4.66165L4.58842 18.7217L8.6287 15.9256Z" fill="#E81900"/>
<path d="M196.798 42.653C197.185 41.0215 196.41 38.5358 195.01 34.0286H182.812L182.191 36.8247H190.892C192.057 41.4088 192.367 43.8946 191.98 45.5261C191.824 45.9134 191.67 46.3033 191.203 46.6907L189.959 47.5449H208.651L211.322 45.3695H211.632L209.582 47.5449H224.841L228.881 44.7488L194.773 44.6718C196.172 43.8946 196.561 43.2738 196.792 42.653H196.798Z" fill="#E81900"/>
<path d="M241.392 44.7488L223.679 21.287V29.5984L237.352 47.5475H250.093L254.134 44.7488H241.392Z" fill="#E81900"/>
<path d="M131.615 42.73C133.09 40.0877 140.783 8.54542 129.673 1.94249H125.866L123.767 4.27434C126.33 5.28507 127.03 6.06235 127.574 6.76005C129.049 9.40229 128.972 14.1403 129.206 26.1046C129.362 36.9813 129.049 41.8758 127.962 44.7514H110.249C111.88 43.9742 112.424 43.3534 112.811 42.7326C114.055 40.4008 114.52 36.5939 114.443 27.7387H99.2923V30.5348H110.402C110.479 39.3927 110.015 43.1995 108.771 45.5287C108.694 45.6852 108.537 45.8391 108.461 45.9956L106.208 47.5502H124.9L127.572 45.3749H127.882L125.831 47.5502H143.109L147.15 44.7541H129.047C130.678 43.9768 131.222 43.356 131.609 42.7353L131.615 42.73Z" fill="#E81900"/>
<path d="M85.3861 1.94249L81.3458 4.73858C82.9773 5.51587 83.5211 6.13663 83.9085 6.7574C85.3834 9.39963 85.6965 14.0607 85.54 26.1019C85.6965 38.2228 85.3834 42.8838 83.9085 45.5261C83.8315 45.6826 83.675 45.8364 83.5981 45.993L81.3458 47.5475H99.4488L103.489 44.7514H85.853C92.0686 44.7514 94.5543 1.94249 85.3861 1.94249Z" fill="#E81900"/>
<path d="M28.594 9.24311C27.7398 9.16618 26.806 9.0866 25.9518 9.0866C19.9696 9.0866 14.5313 11.1054 10.2575 14.5249C13.6771 12.7369 17.7147 11.7288 21.8346 11.7288C22.3015 11.7288 22.8453 11.7288 23.3095 11.8058L0.858521 47.6245H38.3061L42.3464 44.8284H6.29685L28.594 9.24311Z" fill="#E81900"/>
<path d="M44.5217 24.55C44.5217 18.8782 47.3974 11.4211 50.8912 4.81552C43.3544 8.69928 38.4599 18.024 38.4599 26.3354C38.4599 37.679 45.5298 49.0225 59.6694 49.0225C71.9813 49.0225 77.5947 40.2151 77.99 39.9392C56.2446 48.8633 44.519 39.4643 44.519 24.55H44.5217Z" fill="#E81900"/>
<path d="M169.372 42.73C171.704 40.0877 173.102 35.3498 177.143 23.3058L184.289 1.93983H183.902L178.23 5.90318L171.471 26.1019C168.004 36.3684 166.393 41.3691 164.539 44.258C162.674 44.9 162.499 45.4465 160.828 45.4465C156.4 45.4465 155.156 42.8042 152.827 33.7925C150.962 26.6458 144.746 26.7996 141.794 26.9562L141.87 30.2192C144.59 30.6065 147.619 32.161 148.784 36.5886C151.116 45.6003 152.357 48.2426 156.785 48.2426C158.493 48.2426 159.971 47.9322 161.058 47.078L164.3 44.6135C164.154 44.8257 164.006 45.0247 163.855 45.213L161.602 47.5449H179.939L184.212 44.5923H166.499C168.364 43.815 168.831 43.3481 169.375 42.7273L169.372 42.73Z" fill="#E81900"/>
<path d="M74.8994 68.6005H81.8127V65.8813H74.8994V62.6953H83.2108V59.9761H71.013V74.7392H84.0676V71.9404H74.8994V68.6005Z" fill="#FFAB00"/>
<path d="M64.2562 69.0674H64.1766L57.2633 59.9761H53.5334V74.7392H57.3402V65.3375H57.4967L64.3331 74.7392H68.063V59.9761H64.2562V69.0674Z" fill="#FFAB00"/>
<path d="M22.6118 70.6989L20.1261 71.3197L22.3784 68.0567C24.8641 66.8125 27.3498 66.5021 27.5063 66.0379C27.5063 66.0379 27.5833 66.0379 27.5833 65.9609C27.5833 65.3402 26.3391 65.1836 25.8748 65.3402C24.7102 65.4967 22.8453 66.1944 21.7576 66.5048C21.5242 66.5048 21.2907 66.5817 21.2138 66.5817C20.9803 66.5817 20.7469 66.7382 20.67 66.8151C19.8157 67.8259 14.9212 75.9834 14.6878 76.3707C14.6365 76.475 14.6109 76.5785 14.6109 76.6811C14.6109 76.9145 14.7674 76.9915 15.1547 77.3018C15.3881 77.5353 15.6985 77.6891 16.0858 77.6122C16.1628 77.6122 16.2424 77.5353 16.3193 77.3788C16.7066 76.6015 17.6404 75.1265 18.805 73.2616C20.3596 72.4073 22.2245 72.0174 23.4661 71.5531C23.7764 71.4762 23.8534 71.3197 23.8534 71.0862C23.8534 70.7758 22.9222 70.6193 22.6092 70.6989H22.6118Z" fill="#FFAB00"/>
<path d="M33.0243 64.9502C32.4035 64.4064 32.4035 64.096 31.7031 63.8625C31.4697 63.7856 31.3158 63.7856 31.1593 63.8625C28.7505 64.4064 24.5564 70.622 24.5564 73.1077C24.5564 73.3411 24.5564 73.5746 24.7129 73.808C25.1002 74.5084 25.5671 74.5084 26.5778 75.1292C26.8113 75.3626 27.2782 75.3626 27.5886 75.2857C30.8516 74.5853 34.348 68.8366 34.348 66.5843C34.348 65.3402 33.7273 65.4197 33.0269 64.9528L33.0243 64.9502ZM27.2729 74.0388C26.5725 74.1954 26.3417 73.7285 26.3417 73.3385C26.3417 71.3197 30.382 66.2687 31.857 65.9583C32.3239 65.8018 32.5574 66.2687 32.5574 66.6586C32.5574 67.9028 28.907 73.7284 27.2755 74.0388H27.2729Z" fill="#FFAB00"/>
<path d="M42.3464 44.8284C39.6272 40.7881 37.9188 36.6709 36.8311 32.0868C33.0243 34.8829 28.4401 36.5144 23.3891 36.6709L42.7337 1.8629H7.46145L8.62605 15.9256C13.2102 11.6519 19.2693 9.08925 25.9518 9.08925C26.806 9.08925 27.7398 9.16618 28.594 9.24577L6.29685 44.8284H42.3464Z" fill="#FFAB00"/>
<path d="M43.9009 62.231V62.1541C43.0467 62.3106 41.7256 63.2418 41.1048 63.6291C41.1048 63.0852 40.4045 62.3849 39.6298 62.4645C39.4733 62.4645 39.3964 62.5414 39.3195 62.621L32.7165 72.4869C32.4831 72.7204 32.4831 72.9538 32.4831 73.1873C32.4831 73.5746 33.1038 74.4315 33.5707 74.2749C33.7273 74.198 33.8811 74.1184 34.0376 73.8876L36.6003 69.6139C37.611 72.4896 40.874 72.6434 41.6513 72.4896C41.9617 72.4126 42.4286 72.1792 42.4286 71.8688C42.4286 71.7123 42.3517 71.6354 42.1951 71.5584C39.8633 71.1711 39.3195 69.85 39.3195 69.0727C39.3964 69.0727 39.476 69.0727 39.6298 68.9958C41.8052 68.6085 45.5351 65.8893 45.5351 63.7909C45.5351 63.4805 45.5351 63.324 45.4581 63.2471C45.0708 62.6263 44.9912 62.0029 43.9036 62.2363L43.9009 62.231ZM38.9268 67.8232C38.6165 67.9002 38.4599 67.8232 38.4599 67.6667C38.4599 67.6667 38.5369 67.5898 38.5369 67.4333C39.2372 66.1121 41.8768 63.5495 43.5083 63.316C43.6648 63.316 43.8187 63.316 43.8187 63.5495C43.8187 64.7141 40.1684 67.6667 38.9242 67.8232H38.9268Z" fill="#FFAB00"/>
<path d="M101.547 70.0781H101.314L98.1277 59.9761H95.0982L91.9917 70.0781H91.7582L88.7287 59.9761H84.9988L89.6598 74.7392H93.777L96.5758 65.7275H96.7297L99.6053 74.7392H103.566L108.23 59.9761H104.5L101.547 70.0781Z" fill="#FFAB00"/>
<path d="M63.7124 0.698303C35.433 0.698303 35.433 46.2264 63.7124 46.2264C91.9917 46.2264 90.5936 0.698303 63.7124 0.698303ZM63.3993 41.0215C53.5334 41.0215 53.5334 5.90584 63.3993 5.90584C73.8091 5.90584 73.8091 41.4115 63.3993 41.0215Z" fill="#FFAB00"/>
<path d="M209.773 62.8518H214.744V74.7392H218.707V62.8518H223.679V59.9761H209.773V62.8518Z" fill="#FFAB00"/>
<path d="M207.518 59.9761H203.634V74.7365H207.518V59.9761Z" fill="#FFAB00"/>
<path d="M193.688 72.02C190.659 72.02 189.882 70.1551 189.882 67.359V67.282C189.882 63.3983 191.357 62.621 193.688 62.621H193.765C196.251 62.621 197.028 63.5521 197.495 65.4967L201.225 64.7963C200.681 60.5226 196.641 59.7453 193.768 59.7453H193.612C188.484 59.7453 185.998 62.1541 185.998 67.282V67.359C185.998 73.5746 189.648 74.8957 193.612 74.8957H193.688C198.583 74.8957 200.214 73.808 201.379 69.6908L197.649 68.9905C197.028 70.8554 196.795 72.02 193.686 72.02H193.688Z" fill="#FFAB00"/>
<path d="M110.249 44.7488H128.352C126.72 43.9715 126.176 43.3507 125.789 42.73C124.314 40.0877 124.001 35.4267 124.157 23.3058C124.001 11.2646 124.314 6.60088 125.789 3.9613C126.176 3.34054 126.72 2.71712 128.352 1.94249H110.249C111.88 2.71977 112.424 3.34054 112.811 3.9613C114.148 6.35682 114.53 10.4104 114.475 20.1224H99.2631C99.2074 10.413 99.5868 6.35682 100.926 3.9613C101.314 3.34054 101.858 2.71712 103.489 1.94249H85.3861C87.0176 2.71977 87.5614 3.34054 87.9487 3.9613C89.4237 6.60353 89.7368 11.2646 89.5802 23.3058C89.7368 35.4267 89.4237 40.0877 87.9487 42.73C87.5614 43.3507 87.0176 43.9742 85.3861 44.7488H103.489C101.858 43.9715 101.314 43.3507 100.926 42.73C99.6451 40.4379 99.2419 36.6231 99.2605 27.7361H114.482C114.498 36.6231 114.095 40.4379 112.817 42.73C112.429 43.3507 111.885 43.9742 110.254 44.7488H110.249Z" fill="#FFAB00"/>
<path d="M251.571 42.73C250.096 40.0877 249.783 35.4267 249.939 23.3854C249.783 11.2646 250.096 6.60353 251.571 3.9613C251.958 3.34054 252.502 2.71712 254.134 1.94249H236.031C237.662 2.71977 238.206 3.34054 238.593 3.9613C240.418 7.25879 240.405 14.5515 240.211 25.7783L221.193 2.01942L211.017 1.94249C211.948 2.48632 212.571 2.64284 213.579 3.9613C215.444 6.37008 215.368 11.2646 215.211 23.3058C215.368 35.4267 215.054 40.0877 213.579 42.73C213.269 43.226 212.861 43.7221 211.882 44.2951C210.738 43.7221 210.205 43.226 209.773 42.73C207.441 40.0877 206.043 35.3498 202.002 23.3058L194.856 1.93983H183.902L176.755 23.3058C172.715 35.3471 171.317 40.0877 168.985 42.73C168.441 43.3507 167.741 43.9742 165.879 44.7488H183.982C182.584 43.9715 182.194 43.3507 181.963 42.73C181.573 41.0719 181.886 38.6207 183.037 34.0286H194.949C196.1 38.6207 196.413 41.0719 196.023 42.73C195.79 43.3507 195.402 43.9742 194.004 44.7488H228.889C227.258 43.9715 226.714 43.3507 226.326 42.73C224.589 39.6712 224.716 33.185 224.708 22.6108L241.4 44.7514H254.141C252.51 43.9742 251.966 43.3534 251.579 42.7326L251.571 42.73ZM183.682 27.4231C184.101 25.9401 184.56 24.3378 185.061 22.6028L188.563 11.4078L192.065 22.6028C192.564 24.3351 193.023 25.9375 193.444 27.4231H183.682Z" fill="#FFAB00"/>
<path d="M232.847 66.2713H232.537L229.117 59.9761H224.843L230.749 69.9986V74.7392H234.632V69.9986L240.538 59.9761H236.264L232.847 66.2713Z" fill="#FFAB00"/>
<path d="M125.553 59.9761L122.213 66.2713H121.826L118.406 59.9761H114.132L120.038 69.9986V74.7392H123.921V69.9986L129.827 59.9761H125.553Z" fill="#FFAB00"/>
<path d="M137.907 59.7453H137.674C133.09 59.7453 129.827 61.7641 129.827 67.2025V67.359C129.827 72.9538 133.166 74.8957 137.597 74.8957H137.83C143.112 74.8957 145.444 72.7973 145.444 67.359V67.2025C145.444 61.2972 142.181 59.7453 137.907 59.7453ZM137.83 72.02H137.674C135.421 72.02 133.71 71.1658 133.71 67.359C133.71 63.5521 135.265 62.621 137.674 62.621H137.83C140.082 62.621 141.56 63.3213 141.56 67.359C141.56 70.2347 140.86 72.02 137.83 72.02Z" fill="#FFAB00"/>
<path d="M161.913 64.9502V64.7937C161.913 60.3661 158.65 59.9761 154.843 59.9761H147.85V74.6596H151.657V69.842H155.774L157.949 74.6596H162.143L159.347 69.0648C161.212 68.444 161.91 66.7329 161.91 64.9475L161.913 64.9502ZM157.952 65.1041C157.952 67.0459 156.477 66.969 154.922 66.969H151.736V62.8518H154.922C156.477 62.9287 157.952 63.0083 157.952 64.7937V65.1041Z" fill="#FFAB00"/>
<path d="M174.577 59.9761L168.829 65.9583H168.672V59.9761H164.788V74.6623H168.672V70.1551L170.227 68.6774L174.654 74.6623H179.395L173.179 66.3482L179.472 59.9761H174.577Z" fill="#FFAB00"/>
<path d="M144.59 42.73C143.284 40.3955 142.892 36.4852 142.603 27.248C145.781 27.0782 151.129 27.2665 152.824 33.7952C155.156 42.8069 156.397 45.4491 160.748 45.4491C165.409 45.4491 166.887 42.3427 167.584 38.6897C162.69 40.7881 163.157 33.7183 161.058 30.6887C158.96 27.813 156.941 26.8049 156.397 26.7254C160.825 25.7146 165.876 23.6189 165.876 14.3711C165.876 4.42555 159.117 1.93983 149.715 1.93983H129.049C130.681 2.71712 131.225 3.33788 131.612 3.95865C134.408 8.30931 134.175 38.2201 131.612 42.7273C131.225 43.3481 130.681 43.9715 129.049 44.7461H147.152C145.521 43.9688 144.977 43.3481 144.59 42.7273V42.73ZM142.491 7.38082H147.152C152.824 7.38082 155.153 10.3334 155.153 14.838C155.153 19.3425 152.821 22.2951 147.152 22.2951H142.491V7.38082Z" fill="#FFAB00"/>
<path d="M74.8994 68.6005H81.8127V65.8813H74.8994V62.6953H83.2108V59.9761H71.013V74.7392H84.0676V71.9404H74.8994V68.6005Z" fill="#FFAB00"/>
<path d="M64.2562 69.0674H64.1766L57.2633 59.9761H53.5334V74.7392H57.3402V65.3375H57.4967L64.3331 74.7392H68.063V59.9761H64.2562V69.0674Z" fill="#FFAB00"/>
<path d="M22.6118 70.6989L20.1261 71.3197L22.3784 68.0567C24.8641 66.8125 27.3498 66.5021 27.5063 66.0379C27.5063 66.0379 27.5833 66.0379 27.5833 65.9609C27.5833 65.3402 26.3391 65.1836 25.8748 65.3402C24.7102 65.4967 22.8453 66.1944 21.7576 66.5048C21.5242 66.5048 21.2907 66.5817 21.2138 66.5817C20.9803 66.5817 20.7469 66.7382 20.67 66.8151C19.8157 67.8259 14.9212 75.9834 14.6878 76.3707C14.6365 76.475 14.6109 76.5785 14.6109 76.6811C14.6109 76.9145 14.7674 76.9915 15.1547 77.3018C15.3881 77.5353 15.6985 77.6891 16.0858 77.6122C16.1628 77.6122 16.2424 77.5353 16.3193 77.3788C16.7066 76.6015 17.6404 75.1265 18.805 73.2616C20.3596 72.4073 22.2245 72.0174 23.4661 71.5531C23.7764 71.4762 23.8534 71.3197 23.8534 71.0862C23.8534 70.7758 22.9222 70.6193 22.6092 70.6989H22.6118Z" fill="#FFAB00"/>
<path d="M33.0243 64.9502C32.4035 64.4064 32.4035 64.096 31.7031 63.8625C31.4697 63.7856 31.3158 63.7856 31.1593 63.8625C28.7505 64.4064 24.5564 70.622 24.5564 73.1077C24.5564 73.3411 24.5564 73.5746 24.7129 73.808C25.1002 74.5084 25.5671 74.5084 26.5778 75.1292C26.8113 75.3626 27.2782 75.3626 27.5886 75.2857C30.8516 74.5853 34.348 68.8366 34.348 66.5843C34.348 65.3402 33.7273 65.4197 33.0269 64.9528L33.0243 64.9502ZM27.2729 74.0388C26.5725 74.1954 26.3417 73.7285 26.3417 73.3385C26.3417 71.3197 30.382 66.2687 31.857 65.9583C32.3239 65.8018 32.5574 66.2687 32.5574 66.6586C32.5574 67.9028 28.907 73.7284 27.2755 74.0388H27.2729Z" fill="#FFAB00"/>
<path d="M42.3464 44.8284C39.6272 40.7881 37.9188 36.6709 36.8311 32.0868C33.0243 34.8829 28.4401 36.5144 23.3891 36.6709L42.7337 1.8629H7.46145L8.62605 15.9256C13.2102 11.6519 19.2693 9.08925 25.9518 9.08925C26.806 9.08925 27.7398 9.16618 28.594 9.24577L6.29685 44.8284H42.3464Z" fill="#FFAB00"/>
<path d="M43.9009 62.231V62.1541C43.0467 62.3106 41.7256 63.2418 41.1048 63.6291C41.1048 63.0852 40.4045 62.3849 39.6298 62.4645C39.4733 62.4645 39.3964 62.5414 39.3195 62.621L32.7165 72.4869C32.4831 72.7204 32.4831 72.9538 32.4831 73.1873C32.4831 73.5746 33.1038 74.4315 33.5707 74.2749C33.7273 74.198 33.8811 74.1184 34.0376 73.8876L36.6003 69.6139C37.611 72.4896 40.874 72.6434 41.6513 72.4896C41.9617 72.4126 42.4286 72.1792 42.4286 71.8688C42.4286 71.7123 42.3517 71.6354 42.1951 71.5584C39.8633 71.1711 39.3195 69.85 39.3195 69.0727C39.3964 69.0727 39.476 69.0727 39.6298 68.9958C41.8052 68.6085 45.5351 65.8893 45.5351 63.7909C45.5351 63.4805 45.5351 63.324 45.4581 63.2471C45.0708 62.6263 44.9912 62.0029 43.9036 62.2363L43.9009 62.231ZM38.9268 67.8232C38.6165 67.9002 38.4599 67.8232 38.4599 67.6667C38.4599 67.6667 38.5369 67.5898 38.5369 67.4333C39.2372 66.1121 41.8768 63.5495 43.5083 63.316C43.6648 63.316 43.8187 63.316 43.8187 63.5495C43.8187 64.7141 40.1684 67.6667 38.9242 67.8232H38.9268Z" fill="#FFAB00"/>
<path d="M101.547 70.0781H101.314L98.1277 59.9761H95.0982L91.9917 70.0781H91.7582L88.7287 59.9761H84.9988L89.6598 74.7392H93.777L96.5758 65.7275H96.7297L99.6053 74.7392H103.566L108.23 59.9761H104.5L101.547 70.0781Z" fill="#FFAB00"/>
<path d="M63.7124 0.698303C35.433 0.698303 35.433 46.2264 63.7124 46.2264C91.9917 46.2264 90.5936 0.698303 63.7124 0.698303ZM63.3993 41.0215C53.5334 41.0215 53.5334 5.90584 63.3993 5.90584C73.8091 5.90584 73.8091 41.4115 63.3993 41.0215Z" fill="#FFAB00"/>
<path d="M209.773 62.8518H214.744V74.7392H218.707V62.8518H223.679V59.9761H209.773V62.8518Z" fill="#FFAB00"/>
<path d="M207.518 59.9761H203.634V74.7365H207.518V59.9761Z" fill="#FFAB00"/>
<path d="M193.688 72.02C190.659 72.02 189.882 70.1551 189.882 67.359V67.282C189.882 63.3983 191.357 62.621 193.688 62.621H193.765C196.251 62.621 197.028 63.5521 197.495 65.4967L201.225 64.7963C200.681 60.5226 196.641 59.7453 193.768 59.7453H193.612C188.484 59.7453 185.998 62.1541 185.998 67.282V67.359C185.998 73.5746 189.648 74.8957 193.612 74.8957H193.688C198.583 74.8957 200.214 73.808 201.379 69.6908L197.649 68.9905C197.028 70.8554 196.795 72.02 193.686 72.02H193.688Z" fill="#FFAB00"/>
<path d="M110.249 44.7488H128.352C126.72 43.9715 126.176 43.3507 125.789 42.73C124.314 40.0877 124.001 35.4267 124.157 23.3058C124.001 11.2646 124.314 6.60088 125.789 3.9613C126.176 3.34054 126.72 2.71712 128.352 1.94249H110.249C111.88 2.71977 112.424 3.34054 112.811 3.9613C114.148 6.35682 114.53 10.4104 114.475 20.1224H99.2631C99.2074 10.413 99.5868 6.35682 100.926 3.9613C101.314 3.34054 101.858 2.71712 103.489 1.94249H85.3861C87.0176 2.71977 87.5614 3.34054 87.9487 3.9613C89.4237 6.60353 89.7368 11.2646 89.5802 23.3058C89.7368 35.4267 89.4237 40.0877 87.9487 42.73C87.5614 43.3507 87.0176 43.9742 85.3861 44.7488H103.489C101.858 43.9715 101.314 43.3507 100.926 42.73C99.6451 40.4379 99.2419 36.6231 99.2605 27.7361H114.482C114.498 36.6231 114.095 40.4379 112.817 42.73C112.429 43.3507 111.885 43.9742 110.254 44.7488H110.249Z" fill="#FFAB00"/>
<path d="M251.571 42.73C250.096 40.0877 249.783 35.4267 249.939 23.3854C249.783 11.2646 250.096 6.60353 251.571 3.9613C251.958 3.34054 252.502 2.71712 254.134 1.94249H236.031C237.662 2.71977 238.206 3.34054 238.593 3.9613C240.418 7.25879 240.405 14.5515 240.211 25.7783L221.193 2.01942L211.017 1.94249C211.948 2.48632 212.571 2.64284 213.579 3.9613C215.444 6.37008 215.368 11.2646 215.211 23.3058C215.368 35.4267 215.054 40.0877 213.579 42.73C213.269 43.226 212.861 43.7221 211.882 44.2951C210.738 43.7221 210.205 43.226 209.773 42.73C207.441 40.0877 206.043 35.3498 202.002 23.3058L194.856 1.93983H183.902L176.755 23.3058C172.715 35.3471 171.317 40.0877 168.985 42.73C168.441 43.3507 167.741 43.9742 165.879 44.7488H183.982C182.584 43.9715 182.194 43.3507 181.963 42.73C181.573 41.0719 181.886 38.6207 183.037 34.0286H194.949C196.1 38.6207 196.413 41.0719 196.023 42.73C195.79 43.3507 195.402 43.9742 194.004 44.7488H228.889C227.258 43.9715 226.714 43.3507 226.326 42.73C224.589 39.6712 224.716 33.185 224.708 22.6108L241.4 44.7514H254.141C252.51 43.9742 251.966 43.3534 251.579 42.7326L251.571 42.73ZM183.682 27.4231C184.101 25.9401 184.56 24.3378 185.061 22.6028L188.563 11.4078L192.065 22.6028C192.564 24.3351 193.023 25.9375 193.444 27.4231H183.682Z" fill="#FFAB00"/>
<path d="M232.847 66.2713H232.537L229.117 59.9761H224.843L230.749 69.9986V74.7392H234.632V69.9986L240.538 59.9761H236.264L232.847 66.2713Z" fill="#FFAB00"/>
<path d="M125.553 59.9761L122.213 66.2713H121.826L118.406 59.9761H114.132L120.038 69.9986V74.7392H123.921V69.9986L129.827 59.9761H125.553Z" fill="#FFAB00"/>
<path d="M137.907 59.7453H137.674C133.09 59.7453 129.827 61.7641 129.827 67.2025V67.359C129.827 72.9538 133.166 74.8957 137.597 74.8957H137.83C143.112 74.8957 145.444 72.7973 145.444 67.359V67.2025C145.444 61.2972 142.181 59.7453 137.907 59.7453ZM137.83 72.02H137.674C135.421 72.02 133.71 71.1658 133.71 67.359C133.71 63.5521 135.265 62.621 137.674 62.621H137.83C140.082 62.621 141.56 63.3213 141.56 67.359C141.56 70.2347 140.86 72.02 137.83 72.02Z" fill="#FFAB00"/>
<path d="M161.913 64.9502V64.7937C161.913 60.3661 158.65 59.9761 154.843 59.9761H147.85V74.6596H151.657V69.842H155.774L157.949 74.6596H162.143L159.347 69.0648C161.212 68.444 161.91 66.7329 161.91 64.9475L161.913 64.9502ZM157.952 65.1041C157.952 67.0459 156.477 66.969 154.922 66.969H151.736V62.8518H154.922C156.477 62.9287 157.952 63.0083 157.952 64.7937V65.1041Z" fill="#FFAB00"/>
<path d="M174.577 59.9761L168.829 65.9583H168.672V59.9761H164.788V74.6623H168.672V70.1551L170.227 68.6774L174.654 74.6623H179.395L173.179 66.3482L179.472 59.9761H174.577Z" fill="#FFAB00"/>
<path d="M144.59 42.73C143.284 40.3955 142.892 36.4852 142.603 27.248C145.781 27.0782 151.129 27.2665 152.824 33.7952C155.156 42.8069 156.397 45.4491 160.748 45.4491C165.409 45.4491 166.887 42.3427 167.584 38.6897C162.69 40.7881 163.157 33.7183 161.058 30.6887C158.96 27.813 156.941 26.8049 156.397 26.7254C160.825 25.7146 165.876 23.6189 165.876 14.3711C165.876 4.42555 159.117 1.93983 149.715 1.93983H129.049C130.681 2.71712 131.225 3.33788 131.612 3.95865C134.408 8.30931 134.175 38.2201 131.612 42.7273C131.225 43.3481 130.681 43.9715 129.049 44.7461H147.152C145.521 43.9688 144.977 43.3481 144.59 42.7273V42.73ZM142.491 7.38082H147.152C152.824 7.38082 155.153 10.3334 155.153 14.838C155.153 19.3425 152.821 22.2951 147.152 22.2951H142.491V7.38082Z" fill="#FFAB00"/>
</svg>
