<?xml version="1.0" encoding="UTF-8"?>
<svg id="a" data-name="Layer 1" xmlns="http://www.w3.org/2000/svg" viewBox="0 0 483.46 133.97">
  <defs>
    <style>
      .b {
        fill: #ff3217;
      }

      .c {
        fill: #29a6ef;
      }

      .d {
        fill: #001672;
      }
    </style>
  </defs>
  <g>
    <path class="d" d="M100.73,96.35c-1.06,0-2.05-.16-2.99-.47s-1.74-.78-2.43-1.4c-.69-.63-1.23-1.41-1.63-2.34-.39-.93-.59-2.02-.59-3.25,0-1.37.21-2.54.64-3.53.42-.98.99-1.8,1.72-2.44.73-.65,1.56-1.12,2.5-1.43.94-.31,1.93-.46,2.95-.46.82,0,1.58.09,2.28.28.7.19,1.38.46,2.04.83l.08,3.42h-1.67s-.76-3.49-.76-3.49l1.48.33v1.21c-.52-.47-1.01-.81-1.48-1.02-.47-.21-.96-.31-1.46-.31-.78,0-1.51.22-2.18.66-.68.44-1.22,1.13-1.62,2.08-.41.95-.61,2.17-.61,3.67,0,1.5.19,2.72.58,3.66.39.94.91,1.63,1.57,2.06.66.44,1.38.65,2.16.65.54,0,1.08-.1,1.62-.32.54-.21,1.06-.52,1.58-.91v1.12s-1.48.33-1.48.33l.76-3.46h1.67s-.09,3.4-.09,3.4c-.59.32-1.27.59-2.05.8-.78.21-1.64.32-2.58.32Z"/>
    <path class="d" d="M111.16,95.95v-1.19s3.2-.32,3.2-.32h.64s3.26.34,3.26.34v1.19s-7.1-.01-7.1-.01ZM111.19,82.64v-1.17s7.1.01,7.1.01v1.17s-3.26.32-3.26.32h-.64s-3.2-.34-3.2-.34ZM112.79,95.95c.03-.75.05-1.5.06-2.25,0-.75.01-1.51.02-2.28,0-.77,0-1.54,0-2.3v-.82c0-.76,0-1.52,0-2.28,0-.76,0-1.52,0-2.28,0-.76-.02-1.52-.05-2.27h3.83c-.02.74-.03,1.49-.05,2.24-.02.76-.02,1.52-.03,2.28,0,.76,0,1.54,0,2.31v.79c0,.76,0,1.53,0,2.29,0,.76,0,1.52.02,2.28.01.76.03,1.52.04,2.28h-3.83Z"/>
    <path class="d" d="M123.93,85.59l.1-4.1,12.94.02.06,4.1h-1.83s-.57-4.1-.57-4.1l1.56,1.24-11.44-.02,1.61-1.23-.6,4.1h-1.83ZM126.69,95.98v-1.19s3.27-.32,3.27-.32h.97s3.3.34,3.3.34v1.19s-7.54-.01-7.54-.01ZM128.54,95.98c.03-.75.05-1.5.06-2.25,0-.75.01-1.51.02-2.28,0-.77,0-1.54,0-2.3v-.82c0-.76,0-1.52,0-2.28,0-.76,0-1.52,0-2.28,0-.76-.02-1.52-.05-2.27h3.83c-.02.74-.03,1.49-.05,2.24-.02.76-.02,1.52-.03,2.28,0,.76,0,1.54,0,2.31v.79c0,.76,0,1.53,0,2.29,0,.76,0,1.52.02,2.28.01.76.03,1.52.04,2.28h-3.83Z"/>
    <path class="d" d="M142.45,82.69v-1.17s7.03.01,7.03.01v1.17s-2.8.33-2.8.33h-.97s-3.26-.34-3.26-.34ZM147.73,91.28l-4.74-9.75h4.23s3.45,7.77,3.45,7.77h-.71s.18-.38.18-.38l3.41-7.38h1.5s-4.82,9.74-4.82,9.74h-2.49ZM145.36,96.01v-1.19s3.24-.32,3.24-.32h.97s3.33.34,3.33.34v1.19s-7.54-.01-7.54-.01ZM147.21,96.01c.02-.5.03-.98.04-1.43,0-.46.02-.94.02-1.45,0-.51.01-1.09.01-1.72s0-1.37,0-2.2h3.68c0,.83,0,1.56,0,2.19,0,.63,0,1.2,0,1.71s.01,1,.02,1.47c0,.47.02.96.03,1.45h-3.81ZM151.36,82.71v-1.17s4.56,0,4.56,0v1.17s-1.99.33-1.99.33h-.51s-2.07-.33-2.07-.33Z"/>
    <path class="d" d="M177.89,96.49c-1.06,0-2.05-.16-2.99-.47-.93-.31-1.74-.78-2.43-1.4-.69-.62-1.23-1.4-1.63-2.34-.39-.93-.59-2.02-.59-3.25,0-1.37.21-2.54.64-3.52.42-.98.99-1.8,1.72-2.44.73-.65,1.56-1.12,2.5-1.43.94-.31,1.93-.46,2.95-.46.82,0,1.58.09,2.28.28.7.19,1.38.46,2.04.83l.08,3.42h-1.67s-.76-3.49-.76-3.49l1.48.33v1.21c-.52-.47-1.01-.81-1.48-1.02-.47-.21-.96-.31-1.46-.31-.78,0-1.51.22-2.18.66-.68.44-1.22,1.13-1.62,2.08-.41.95-.61,2.17-.61,3.67,0,1.5.19,2.72.58,3.66.39.94.91,1.63,1.57,2.06s1.38.65,2.16.65c.54,0,1.08-.1,1.62-.32.54-.21,1.06-.52,1.58-.91v1.12s-1.48.33-1.48.33l.76-3.46h1.67s-.09,3.4-.09,3.4c-.59.32-1.27.59-2.05.8-.78.21-1.64.32-2.58.31Z"/>
    <path class="d" d="M195.29,96.52c-.9,0-1.77-.16-2.61-.48s-1.6-.8-2.26-1.44c-.66-.64-1.18-1.44-1.55-2.39-.37-.96-.56-2.08-.56-3.37,0-1.26.2-2.37.58-3.33s.9-1.75,1.56-2.39c.66-.64,1.41-1.12,2.25-1.44.84-.32,1.72-.48,2.61-.48.91,0,1.78.16,2.62.48.84.32,1.58.8,2.23,1.44.65.64,1.17,1.44,1.55,2.39.38.96.57,2.07.57,3.35,0,1.28-.19,2.4-.57,3.35-.38.96-.9,1.75-1.56,2.39-.66.64-1.41,1.12-2.25,1.44-.84.32-1.71.48-2.62.48ZM195.29,95.24c.56,0,1.04-.16,1.43-.47.4-.32.72-.76.96-1.34.24-.58.42-1.26.53-2.04.11-.78.17-1.62.17-2.53,0-.9-.05-1.73-.16-2.51-.11-.78-.28-1.46-.53-2.04-.24-.58-.56-1.03-.96-1.36-.4-.32-.87-.49-1.43-.49-.56,0-1.03.16-1.42.48-.39.32-.71.77-.96,1.35-.25.58-.43,1.26-.54,2.04-.11.78-.17,1.62-.17,2.51,0,.91.05,1.76.16,2.54.11.78.29,1.46.54,2.04.25.58.57,1.03.96,1.35.39.32.86.48,1.42.48Z"/>
    <path class="d" d="M207.55,82.81v-1.17s7.19.01,7.19.01v1.17s-3.26.32-3.26.32h-.64s-3.28-.34-3.28-.34ZM214.8,96.55c-1.09,0-2.06-.2-2.91-.59s-1.52-1.02-2-1.89c-.48-.87-.72-2.01-.72-3.42v-2.4c0-.73,0-1.47,0-2.2,0-.73,0-1.47,0-2.22,0-.74-.02-1.47-.05-2.19h3.83c-.02.71-.03,1.43-.05,2.17-.02.74-.02,1.47-.03,2.22,0,.74,0,1.49,0,2.24v1.7c0,1.12.11,2.01.34,2.68.23.67.58,1.15,1.04,1.46.46.3,1.05.45,1.75.46.66,0,1.23-.16,1.7-.47.47-.31.83-.81,1.08-1.5.25-.68.38-1.58.38-2.68v-8.24s1.45,0,1.45,0v8.24c-.02,1.56-.25,2.82-.71,3.8-.46.98-1.12,1.7-1.99,2.16-.87.46-1.91.69-3.13.69ZM217.18,82.83v-1.17s5.27,0,5.27,0v1.17s-2.27.22-2.27.22h-.64s-2.36-.23-2.36-.23Z"/>
    <path class="d" d="M228.02,96.16v-1.19s2.36-.33,2.36-.33h.64s2.82.34,2.82.34v1.19s-5.82-.01-5.82-.01ZM239.08,96.22l-8.02-11.5h-.09l-1.14-1.72-1.59-.14v-1.19s5.01,0,5.01,0l6.66,9.45-.38.13v-3.26s.02-6.3.02-6.3h1.41s-.03,14.53-.03,14.53h-1.85ZM229.89,96.16l.03-13.91h1.43s-.01,6.66-.01,6.66v7.25s-1.45,0-1.45,0ZM237.03,82.86v-1.17s5.8.01,5.8.01v1.17s-2.23.33-2.23.33h-.62s-2.95-.34-2.95-.34Z"/>
    <path class="d" d="M255.62,96.63c-1.06,0-2.05-.16-2.99-.47s-1.74-.78-2.43-1.4c-.69-.63-1.23-1.41-1.63-2.34-.39-.93-.59-2.02-.59-3.25,0-1.37.21-2.54.64-3.53.42-.98.99-1.8,1.72-2.44.73-.65,1.56-1.12,2.5-1.43.94-.31,1.93-.46,2.95-.46.82,0,1.58.09,2.28.28.7.19,1.38.46,2.04.83l.08,3.42h-1.67s-.76-3.49-.76-3.49l1.48.33v1.21c-.52-.47-1.01-.81-1.48-1.02-.47-.21-.96-.31-1.46-.31-.78,0-1.51.22-2.18.66-.68.44-1.22,1.13-1.62,2.08-.41.95-.61,2.17-.61,3.67,0,1.5.19,2.72.58,3.66.39.94.91,1.63,1.57,2.06.66.44,1.38.65,2.16.65.54,0,1.08-.1,1.62-.32.54-.21,1.06-.52,1.58-.91v1.12s-1.48.33-1.48.33l.76-3.46h1.67s-.09,3.4-.09,3.4c-.59.32-1.27.59-2.05.8-.78.21-1.64.32-2.58.32Z"/>
    <path class="d" d="M266.05,96.23v-1.19s3.2-.32,3.2-.32h.64s3.26.34,3.26.34v1.19s-7.1-.01-7.1-.01ZM266.08,82.92v-1.17s7.1.01,7.1.01v1.17s-3.26.32-3.26.32h-.64s-3.2-.34-3.2-.34ZM267.69,96.23c.03-.75.05-1.5.06-2.25,0-.75.01-1.51.02-2.28,0-.77,0-1.54,0-2.3v-.82c0-.76,0-1.52,0-2.28,0-.76,0-1.52,0-2.28,0-.76-.02-1.52-.05-2.27h3.83c-.02.74-.03,1.49-.05,2.24-.02.76-.02,1.52-.03,2.28,0,.76,0,1.54,0,2.31v.79c0,.76,0,1.53,0,2.29,0,.76,0,1.52.02,2.28.01.76.03,1.52.04,2.28h-3.83Z"/>
    <path class="d" d="M278.97,96.25v-1.19s3.2-.32,3.2-.32h.33s0,1.52,0,1.52h-3.53ZM279,82.94v-1.17s7.25.01,7.25.01v1.17s-3.26.32-3.26.32h-.79s-3.2-.34-3.2-.34ZM280.6,96.25c.03-.75.05-1.5.06-2.24,0-.74.01-1.46.02-2.16,0-.7,0-1.36,0-1.97v-1.28c0-.78,0-1.55,0-2.3,0-.76,0-1.52,0-2.28,0-.76-.02-1.51-.05-2.25h3.83c-.02.74-.03,1.49-.05,2.24-.02.76-.02,1.52-.03,2.28,0,.76,0,1.54,0,2.31v1.17c0,.65,0,1.33,0,2.04,0,.71,0,1.44.02,2.19.01.75.03,1.5.04,2.25h-3.83ZM282.5,96.26v-1.26s6.39.01,6.39.01l-.79.64.73-3.7h1.76s-.23,4.32-.23,4.32h-7.87Z"/>
    <path class="d" d="M305.29,96.3v-1.19s3.2-.32,3.2-.32h1.01s3.19.34,3.19.34v1.19s-7.41-.01-7.41-.01ZM305.31,82.99v-1.17s3.53,0,3.53,0v1.5s-.33,0-.33,0l-3.2-.34ZM306.92,96.3c.03-.75.05-1.5.06-2.25,0-.75.01-1.51.02-2.28,0-.77,0-1.54,0-2.3v-.82c0-.76,0-1.52,0-2.28,0-.76,0-1.52,0-2.28,0-.76-.02-1.52-.05-2.27h3.83c-.02.74-.03,1.49-.05,2.24-.02.76-.02,1.52-.03,2.28,0,.76,0,1.54,0,2.31v1.34c0,.6,0,1.25,0,1.93,0,.68,0,1.39.02,2.13.01.73.03,1.48.04,2.25h-3.83ZM308.83,90.77v-1.23s2.52,0,2.52,0c.66,0,1.21-.14,1.63-.42.43-.28.75-.67.96-1.19s.32-1.1.32-1.76c0-1.03-.25-1.8-.77-2.32-.51-.52-1.25-.77-2.22-.78h-2.42s0-1.26,0-1.26h2.47c1.53,0,2.76.19,3.7.55.94.36,1.62.87,2.06,1.52.43.66.65,1.42.65,2.31,0,.82-.21,1.58-.61,2.28-.41.7-1.08,1.25-2.01,1.67-.93.42-2.19.62-3.78.62h-2.49Z"/>
    <path class="d" d="M330.24,96.76c-.9,0-1.77-.16-2.61-.48-.84-.32-1.6-.8-2.26-1.44-.66-.64-1.18-1.44-1.55-2.39-.37-.96-.56-2.08-.56-3.37,0-1.26.2-2.37.58-3.33.38-.95.9-1.75,1.56-2.39.66-.64,1.41-1.12,2.25-1.44.84-.32,1.72-.48,2.61-.48.91,0,1.78.16,2.62.48.84.32,1.58.8,2.23,1.44.65.64,1.17,1.44,1.55,2.39.38.96.57,2.07.57,3.35,0,1.28-.19,2.39-.57,3.35-.38.95-.9,1.75-1.56,2.39s-1.41,1.12-2.25,1.44c-.84.32-1.71.48-2.62.48ZM330.24,95.48c.56,0,1.04-.16,1.43-.47.4-.31.72-.76.96-1.34.24-.58.42-1.26.53-2.04.11-.78.17-1.62.17-2.53,0-.9-.05-1.73-.16-2.51-.11-.78-.28-1.46-.53-2.04-.24-.58-.56-1.03-.96-1.36-.4-.32-.87-.49-1.43-.49s-1.03.16-1.42.48-.71.77-.96,1.35c-.25.58-.43,1.26-.54,2.04-.11.78-.17,1.62-.17,2.51,0,.91.05,1.76.16,2.53.11.78.29,1.46.54,2.04.25.58.57,1.03.96,1.35.39.32.86.48,1.42.48Z"/>
    <path class="d" d="M347.79,96.79c-.82,0-1.67-.1-2.53-.3-.87-.2-1.62-.49-2.25-.87l.14-3.26h2.05s.57,3.58.57,3.58l-1.72-.55v-1.06c.47.25.9.46,1.29.63.39.17.78.3,1.17.39.39.09.81.13,1.27.13.53,0,.97-.09,1.33-.27.36-.18.63-.44.82-.76.18-.32.28-.68.28-1.06,0-.4-.06-.73-.2-.99-.13-.27-.34-.5-.62-.7-.28-.2-.64-.4-1.08-.61l-.95-.42c-.85-.4-1.58-.83-2.19-1.28-.61-.46-1.07-.98-1.4-1.57-.32-.59-.48-1.29-.48-2.09,0-.88.23-1.64.68-2.27.45-.63,1.08-1.12,1.91-1.46.82-.34,1.79-.52,2.89-.51.79,0,1.55.1,2.28.3s1.35.48,1.88.83l-.18,3.09h-2.03s-.52-3.33-.52-3.33l1.78.64v1.1c-.59-.43-1.12-.75-1.6-.98-.48-.23-1-.34-1.55-.34-.41,0-.79.08-1.13.25-.35.17-.62.4-.83.7-.21.3-.31.65-.31,1.05,0,.4.08.73.23,1.01.15.28.38.53.67.75.29.22.66.43,1.1.62l1.03.46c.94.43,1.7.86,2.28,1.31.58.44,1,.93,1.28,1.48.27.54.41,1.19.41,1.94,0,.87-.22,1.63-.67,2.3s-1.09,1.19-1.94,1.57c-.85.38-1.91.57-3.15.57Z"/>
    <path class="d" d="M361.85,96.73c-.56,0-1.03-.19-1.41-.58-.38-.38-.57-.85-.57-1.39,0-.56.19-1.03.58-1.42.38-.39.85-.58,1.41-.58.56,0,1.03.2,1.41.59s.57.86.57,1.42c0,.54-.19,1.01-.58,1.39-.38.38-.85.57-1.41.57Z"/>
    <path class="d" d="M379.84,96.43v-1.96c.52-.5,1.02-.99,1.52-1.47.49-.48.96-.95,1.4-1.41.71-.72,1.29-1.37,1.76-1.95.46-.58.81-1.16,1.05-1.74.24-.58.35-1.2.36-1.86,0-.85-.2-1.51-.6-1.98-.4-.47-.95-.71-1.64-.71-.31,0-.63.03-.97.09-.34.06-.72.19-1.15.4l1.65-.99-.38,2.09c-.07.5-.2.88-.37,1.16-.17.27-.36.46-.58.56-.22.1-.45.15-.68.15-.31,0-.59-.09-.85-.26-.26-.17-.45-.39-.58-.65.03-.81.28-1.49.75-2.04.47-.55,1.09-.96,1.85-1.24.76-.28,1.6-.42,2.51-.41,1.07,0,1.94.17,2.61.51.67.34,1.16.8,1.47,1.37.32.57.47,1.22.47,1.94,0,.71-.18,1.39-.54,2.05-.36.66-.93,1.34-1.71,2.02-.78.69-1.78,1.45-3,2.29-.25.16-.51.34-.78.54-.27.2-.55.4-.84.59-.29.2-.57.4-.85.6l.22-.95v.55s7.8.01,7.8.01v2.71s-9.9-.02-9.9-.02Z"/>
  </g>
  <g>
    <g>
      <path class="b" d="M260.38,61.2l.09-52.22,20.89.04-.02,10.09-10.27-.02-.02,10.18,9.85.02-.02,9.82-9.85-.02-.02,11.96,10.95.02-.02,10.18-21.57-.04Z"/>
      <path class="b" d="M294.73,61.73c-2.06,0-3.69-.38-4.89-1.14-1.21-.75-2.1-1.79-2.69-3.12-.59-1.33-.98-2.88-1.17-4.66-.18-1.78-.27-3.69-.27-5.73l.04-19.35c0-3.42.62-6.19,1.84-8.31,1.22-2.11,3.29-3.17,6.19-3.16,2.16,0,3.81.47,4.97,1.39,1.16.92,2.05,2.2,2.68,3.85l.02-12.46,10.8.02-.09,52.22-10.8-.02v-4.72c-.59,1.6-1.38,2.87-2.36,3.79-.98.93-2.4,1.39-4.26,1.39ZM298.81,53.43c1.01,0,1.69-.4,2.04-1.21.35-.81.52-2.26.53-4.36l.03-18.72c0-1.05-.15-2.08-.45-3.1-.3-1.02-.98-1.53-2.03-1.53-1.15,0-1.87.48-2.17,1.45-.3.97-.45,2.03-.45,3.17l-.03,18.72c0,3.72.84,5.58,2.54,5.58Z"/>
      <path class="b" d="M316.75,61.3l.08-44.51,10.38.02v5.16c.47-1.82,1.28-3.21,2.43-4.18,1.15-.97,2.83-1.45,5.05-1.45,1.78,0,3.3.42,4.55,1.24,1.25.82,2.14,1.91,2.65,3.25.81-1.46,1.77-2.57,2.87-3.33,1.1-.76,2.67-1.14,4.71-1.13,2.47,0,4.38.54,5.71,1.6,1.33,1.06,2.26,2.53,2.78,4.4.52,1.87.78,4.03.77,6.48l-.06,32.52-10.59-.02.06-32.7c0-2.87-.72-4.3-2.19-4.31-.77,0-1.36.26-1.78.78-.42.52-.71,1.17-.86,1.94s-.24,1.54-.24,2.31l-.06,31.96-10.59-.02.06-32.7c0-.93-.11-1.86-.34-2.79-.23-.93-.8-1.4-1.73-1.4-.79,0-1.41.28-1.84.86-.44.57-.73,1.28-.89,2.12-.16.84-.24,1.67-.24,2.48l-.06,31.42-10.62-.02Z"/>
      <path class="b" d="M376.24,61.88c-8.86-.02-13.29-4.62-13.27-13.82l.03-17.86c0-4.19,1.19-7.54,3.55-10.04,2.36-2.5,5.61-3.74,9.77-3.74,4.17,0,7.43,1.26,9.79,3.77,2.35,2.51,3.52,5.86,3.51,10.05l-.03,17.86c-.02,9.2-4.47,13.79-13.35,13.77ZM376.26,53.69c.89,0,1.53-.32,1.92-.96s.58-1.46.58-2.45l.04-21.75c0-2.59-.82-3.89-2.49-3.89-1.66,0-2.5,1.29-2.5,3.88l-.04,21.75c0,.99.19,1.81.58,2.45s1.02.97,1.91.97Z"/>
      <path class="b" d="M393.89,61.44l.08-44.51,10.62.02v5.67c.39-1.7,1.13-3.15,2.21-4.34,1.08-1.19,2.58-1.79,4.5-1.79,3.09,0,5.32.96,6.71,2.86,1.39,1.9,2.08,4.5,2.08,7.81l-.06,34.33-10.47-.02.06-33.23c0-.87-.18-1.68-.53-2.42-.36-.74-.97-1.11-1.84-1.12-.81,0-1.41.28-1.8.84-.39.56-.63,1.27-.73,2.11-.1.84-.15,1.68-.15,2.51l-.06,31.3-10.62-.02Z"/>
      <path class="b" d="M433.47,61.98c-2.06,0-3.69-.38-4.89-1.14-1.21-.75-2.1-1.79-2.69-3.12-.59-1.33-.98-2.88-1.17-4.66-.18-1.78-.27-3.69-.27-5.73l.04-19.35c0-3.42.62-6.19,1.84-8.3,1.22-2.11,3.29-3.17,6.19-3.16,2.16,0,3.81.47,4.97,1.39,1.16.92,2.05,2.2,2.68,3.85l.02-12.46,10.8.02-.09,52.22-10.8-.02v-4.72c-.59,1.6-1.38,2.87-2.36,3.79-.98.93-2.4,1.39-4.26,1.39ZM437.55,53.68c1.01,0,1.69-.4,2.04-1.21.35-.81.52-2.26.53-4.36l.03-18.72c0-1.05-.15-2.08-.45-3.1-.3-1.02-.98-1.53-2.03-1.53-1.15,0-1.87.48-2.17,1.45-.3.97-.45,2.03-.45,3.17l-.03,18.72c0,3.72.84,5.58,2.54,5.58Z"/>
      <path class="b" d="M467.81,62.04c-8.78-.02-13.17-4.47-13.15-13.38v-3.53s10.69.02,10.69.02v5.22c-.01,1.01.19,1.8.58,2.38.39.57,1.03.86,1.9.86,1.54,0,2.32-1.15,2.32-3.47,0-1.94-.4-3.39-1.21-4.35-.81-.96-1.8-1.89-2.96-2.78l-5.66-4.37c-1.78-1.39-3.13-2.85-4.06-4.4-.93-1.54-1.39-3.69-1.38-6.44,0-2.55.62-4.66,1.84-6.32,1.22-1.66,2.83-2.89,4.84-3.7,2.01-.81,4.18-1.21,6.52-1.21,8.62.02,12.93,4.33,12.91,12.93v.83s-10.98-.02-10.98-.02v-1.69c0-.89-.15-1.75-.45-2.58-.3-.83-.9-1.25-1.79-1.25-1.5,0-2.26.79-2.26,2.37,0,1.6.63,2.86,1.89,3.77l6.58,4.82c2.05,1.49,3.78,3.25,5.17,5.29,1.39,2.04,2.08,4.75,2.08,8.13,0,4.19-1.21,7.39-3.59,9.58-2.39,2.19-5.66,3.28-9.81,3.28Z"/>
    </g>
    <g>
      <path class="b" d="M15.35,61.69c-2.35,0-4.5-.46-6.44-1.38-1.94-.91-3.47-2.27-4.61-4.06-1.13-1.79-1.7-3.99-1.69-6.6l.02-13.09,10.33.02-.02,12.46c0,.91.18,1.64.55,2.2.36.55.95.83,1.76.83,1.56,0,2.35-.96,2.35-2.87l.07-40.21,10.53.02-.07,39.17c0,2.77-.55,5.17-1.64,7.19-1.09,2.03-2.6,3.59-4.52,4.68-1.92,1.09-4.13,1.64-6.62,1.63Z"/>
      <path class="b" d="M44.92,61.75c-3.17,0-5.69-.6-7.56-1.79-1.88-1.19-3.22-2.9-4.03-5.14-.81-2.24-1.21-4.93-1.2-8.07l.03-17.89c0-4.13,1.2-7.26,3.58-9.38s5.64-3.18,9.8-3.17c8.55.02,12.81,4.22,12.8,12.6v3.23c-.01,3.92-.06,6.55-.14,7.89l-15.43-.03-.02,8.6c0,.79.05,1.57.14,2.33.1.76.32,1.39.66,1.89.35.5.9.74,1.68.74,1.11,0,1.8-.48,2.08-1.44.28-.96.42-2.21.42-3.75v-4.27s10.57.02,10.57.02v2.52c0,3.32-.42,6.11-1.25,8.35-.83,2.24-2.21,3.93-4.16,5.07s-4.61,1.7-7.97,1.69ZM42.72,34.71h5.04s.01-5.99.01-5.99c0-1.6-.19-2.75-.59-3.46-.4-.7-.99-1.05-1.78-1.06-.85,0-1.51.33-1.98,1-.47.67-.7,1.84-.7,3.5v5.99Z"/>
      <path class="b" d="M75.08,61.8c-8.78-.02-13.17-4.47-13.15-13.38v-3.53s10.69.02,10.69.02v5.22c-.01,1.01.19,1.8.58,2.38.39.57,1.03.86,1.9.86,1.54,0,2.32-1.15,2.32-3.47,0-1.94-.4-3.39-1.21-4.35-.81-.96-1.8-1.89-2.96-2.78l-5.66-4.37c-1.78-1.39-3.13-2.85-4.06-4.4-.93-1.54-1.39-3.69-1.38-6.44,0-2.55.62-4.66,1.84-6.32,1.22-1.66,2.83-2.89,4.84-3.7,2.01-.81,4.18-1.21,6.52-1.21,8.62.02,12.93,4.33,12.91,12.93v.83s-10.98-.02-10.98-.02v-1.69c0-.89-.15-1.75-.45-2.58-.3-.83-.9-1.25-1.79-1.25-1.5,0-2.26.79-2.26,2.37,0,1.6.63,2.86,1.89,3.77l6.58,4.82c2.05,1.49,3.78,3.25,5.17,5.29,1.39,2.04,2.08,4.75,2.08,8.13,0,4.19-1.21,7.39-3.59,9.58-2.39,2.19-5.66,3.28-9.81,3.28Z"/>
      <path class="b" d="M105.03,61.85c-8.78-.02-13.17-4.47-13.15-13.38v-3.53s10.69.02,10.69.02v5.22c-.01,1.01.19,1.8.58,2.38.39.57,1.03.86,1.9.86,1.54,0,2.32-1.15,2.32-3.47,0-1.94-.4-3.39-1.21-4.35-.81-.96-1.8-1.89-2.96-2.78l-5.66-4.37c-1.78-1.39-3.13-2.85-4.06-4.4s-1.39-3.69-1.38-6.44c0-2.55.62-4.66,1.84-6.32,1.22-1.66,2.83-2.89,4.84-3.7,2.01-.81,4.18-1.21,6.52-1.21,8.62.02,12.93,4.33,12.91,12.93v.83s-10.98-.02-10.98-.02v-1.69c0-.89-.15-1.75-.45-2.58-.3-.83-.9-1.25-1.79-1.25-1.5,0-2.26.79-2.26,2.37,0,1.6.63,2.86,1.89,3.77l6.58,4.82c2.05,1.49,3.78,3.25,5.17,5.29,1.39,2.04,2.08,4.75,2.08,8.13,0,4.19-1.21,7.39-3.59,9.58s-5.66,3.28-9.81,3.28Z"/>
      <path class="b" d="M122.23,61.41l.08-44.51,10.62.02-.08,44.51-10.62-.02ZM122.31,14.17l.02-8.84,10.62.02-.02,8.84-10.62-.02Z"/>
      <path class="b" d="M150.92,61.94c-4.99,0-8.52-1.29-10.6-3.85-2.08-2.56-3.12-6.31-3.11-11.25l.02-13.71c0-3.72.41-6.81,1.2-9.28.8-2.47,2.18-4.32,4.16-5.54,1.98-1.22,4.73-1.83,8.25-1.83,2.45,0,4.65.44,6.6,1.32,1.95.87,3.48,2.15,4.61,3.84,1.12,1.68,1.68,3.74,1.68,6.17v6.79s-10.84-.02-10.84-.02v-6.23c.01-1.03-.13-1.89-.43-2.6-.3-.7-.94-1.06-1.93-1.06-1.74,0-2.61,1.23-2.62,3.7l-.04,21.57c0,.91.2,1.75.59,2.51.39.76,1.05,1.14,1.96,1.15.93,0,1.58-.37,1.95-1.11.37-.74.55-1.61.55-2.6v-7.48s10.78.02,10.78.02v7.77c-.02,2.45-.57,4.55-1.67,6.3s-2.61,3.09-4.53,4.01c-1.92.93-4.12,1.39-6.59,1.38Z"/>
      <path class="b" d="M176.31,61.98c-2.47,0-4.36-.58-5.65-1.73s-2.18-2.72-2.65-4.72c-.47-2-.7-4.26-.7-6.8,0-2.71.28-4.93.81-6.66.54-1.73,1.45-3.15,2.75-4.25,1.3-1.1,3.08-2.04,5.36-2.81l6.59-2.24v-4.57c.01-2.39-.77-3.59-2.33-3.59-1.42,0-2.14.97-2.14,2.9v2.67s-10.33-.02-10.33-.02c-.02-.16-.03-.36-.03-.61,0-.25,0-.53,0-.85,0-4.43,1.06-7.57,3.15-9.42,2.09-1.85,5.4-2.76,9.93-2.76,2.37,0,4.5.43,6.38,1.27s3.37,2.09,4.46,3.73c1.09,1.64,1.64,3.67,1.63,6.09l-.06,33.92-10.56-.02v-5.28c-.51,1.86-1.36,3.28-2.55,4.27-1.19.99-2.54,1.48-4.07,1.48ZM180.51,53.74c.87,0,1.46-.36,1.78-1.1.32-.73.48-1.52.48-2.37l.02-12.4c-1.46.59-2.6,1.34-3.42,2.23-.81.9-1.22,2.22-1.22,3.96v5.73c-.01,2.63.77,3.95,2.36,3.95Z"/>
    </g>
    <g>
      <path class="d" d="M211.07,54.31c-.6,0-1.11-.06-1.53-.18-.42-.12-.77-.32-1.04-.6-.27-.28-.48-.64-.63-1.08.05-.46.22-.84.49-1.15.27-.31.66-.47,1.15-.47.31,0,.59.06.83.19s.47.3.68.52c.21.22.42.47.62.77l.63,1.01v.11h-.52v-.11c.2-.26.4-.54.59-.86.19-.32.37-.7.53-1.14.16-.44.31-.9.44-1.4.13-.49.25-1.02.37-1.59.12-.57.22-1.17.31-1.81.29-1.81.56-3.64.81-5.5s.5-3.72.75-5.58c.2-1.29.51-2.43.92-3.41.41-.98.92-1.79,1.52-2.43s1.27-1.13,2.01-1.45c.74-.32,1.52-.48,2.34-.48.57,0,1.1.09,1.61.26s.94.42,1.3.74c.36.32.58.68.67,1.08-.05.47-.27.87-.64,1.18-.37.31-.77.47-1.19.47s-.8-.13-1.13-.4c-.34-.26-.65-.62-.94-1.05l-.88-1.5v-.33h.9v.3c-.31.16-.59.38-.83.66s-.47.62-.66,1.05c-.19.43-.37.96-.53,1.59s-.31,1.39-.44,2.28c-.31,2.15-.62,4.3-.92,6.43-.3,2.13-.63,4.18-1,6.13-.15.88-.34,1.67-.59,2.39-.25.72-.53,1.37-.85,1.96-.32.58-.71,1.1-1.16,1.56-.36.4-.78.74-1.23,1.01-.46.27-.92.48-1.38.62s-.93.21-1.38.21ZM213.4,36.15l.25-1.31,3.15-.38v.14h5.96l-.33,1.72-5.85-.16h-3.17Z"/>
      <path class="d" d="M227.05,48.24c-.98,0-1.88-.19-2.68-.56-.8-.37-1.44-.94-1.92-1.71-.47-.77-.71-1.75-.71-2.95s.2-2.25.6-3.3c.4-1.05.96-1.99,1.68-2.83.72-.84,1.57-1.5,2.54-1.98.98-.48,2.03-.72,3.16-.72,1,0,1.9.19,2.68.56.78.37,1.41.94,1.87,1.71s.7,1.75.7,2.95c0,1.13-.2,2.23-.6,3.3-.4,1.07-.96,2.02-1.67,2.85-.71.83-1.55,1.49-2.52,1.97-.97.48-2.02.72-3.15.72ZM227.38,46.76c.42,0,.82-.16,1.19-.48.37-.32.71-.75,1.01-1.3.3-.55.56-1.17.78-1.87.22-.7.38-1.44.49-2.22s.16-1.55.16-2.31c0-1.11-.15-1.87-.45-2.28-.3-.41-.7-.62-1.19-.62-.44,0-.84.16-1.22.48-.37.32-.71.75-1.01,1.29-.3.54-.56,1.16-.78,1.86s-.39,1.43-.51,2.19c-.12.76-.18,1.51-.18,2.26,0,1.17.17,1.96.49,2.38.33.42.73.63,1.2.63Z"/>
      <path class="d" d="M236.2,47.72l2.35-11.24,1.45.79-3.47-.55.16-1.01,5.28-1.56.49.44-.79,4.76.11.16-.49,2.46c-.18.97-.37,1.94-.56,2.91-.19.98-.39,1.96-.59,2.94l-3.56.22-.38-.33ZM241.34,41.7l-.55-1.42h.3c.44-1.11.93-2.13,1.49-3.06.56-.93,1.15-1.67,1.79-2.22.64-.55,1.27-.82,1.89-.82.49,0,.94.11,1.34.34s.68.57.85,1.03c-.02.64-.18,1.18-.49,1.63-.31.45-.77.67-1.37.67-.44,0-.83-.12-1.16-.36-.34-.24-.72-.58-1.13-1.04l-.41-.44,1.31-.16v.16c-.64.6-1.19,1.21-1.67,1.83-.47.62-.88,1.25-1.23,1.89-.35.64-.67,1.3-.96,1.97Z"/>
    </g>
  </g>
  <path class="c" d="M287.66,131.55c-3.11,0-4.78-1.08-6.12-1.95-1.17-.75-2.01-1.3-3.92-1.3s-2.76.54-3.92,1.3c-1.34.87-3.01,1.95-6.12,1.95s-4.78-1.08-6.12-1.95c-1.17-.75-2.01-1.3-3.92-1.3s-2.76.54-3.92,1.3c-1.34.87-3.01,1.95-6.12,1.95s-4.78-1.08-6.12-1.95c-1.17-.75-2.01-1.3-3.92-1.3s-2.76.54-3.92,1.3c-1.34.87-3.01,1.95-6.12,1.95s-4.78-1.08-6.12-1.95c-1.17-.75-2.01-1.3-3.92-1.3s-2.76.54-3.93,1.3c-1.34.87-3.01,1.95-6.12,1.95s-4.78-1.08-6.12-1.95c-1.17-.75-2.01-1.3-3.93-1.3s-2.76.54-3.93,1.3c-1.34.87-3.01,1.95-6.12,1.95v-4.05c1.92,0,2.76-.54,3.93-1.3,1.34-.87,3.01-1.95,6.12-1.95s4.78,1.08,6.12,1.95c1.17.75,2.01,1.3,3.93,1.3s2.76-.54,3.93-1.3c1.34-.87,3.01-1.95,6.12-1.95s4.78,1.08,6.12,1.95c1.17.75,2.01,1.3,3.92,1.3s2.76-.54,3.92-1.3c1.34-.87,3.01-1.95,6.12-1.95s4.78,1.08,6.12,1.95c1.17.75,2.01,1.3,3.92,1.3s2.76-.54,3.92-1.3c1.34-.87,3.01-1.95,6.12-1.95s4.78,1.08,6.12,1.95c1.17.75,2.01,1.3,3.92,1.3s2.76-.54,3.92-1.3c1.34-.87,3.01-1.95,6.12-1.95s4.78,1.08,6.12,1.95c1.17.75,2.01,1.3,3.92,1.3v4.05Z"/>
</svg>